<svg xmlns="http://www.w3.org/2000/svg">

  <symbol id="icon-close" viewBox="0 0 32 32">
    <path fill="currentColor" d="M16.7,16L27.8,4.8c0.2-0.2,0.2-0.5,0-0.7s-0.5-0.2-0.7,0L16,15.2L4.8,4.1c-0.2-0.2-0.5-0.2-0.7,0c-0.2,0.2-0.2,0.5,0,0.7
    L15.2,16L4.1,27.1c-0.2,0.2-0.2,0.5,0,0.7C4.2,27.9,4.3,28,4.5,28s0.3,0,0.4-0.1L16,16.7l11.1,11.1c0.1,0.1,0.2,0.1,0.4,0.1
    s0.3,0,0.4-0.1c0.2-0.2,0.2-0.5,0-0.7L16.7,16z"/>
  </symbol>

  <symbol id="icon-running" viewBox="0 0 32 32">
    <path fill="currentColor" d="M12.2,21.2C12.1,21.2,12.2,21.2,12.2,21.2L12.2,21.2z"/>
    <path fill="currentColor" d="M24.8,13.7c-0.2-0.5-0.8-0.7-1.2-0.5c-0.6,0.3-1.5,0.7-2.1,0.9c0,0,0,0,0,0c-0.4-0.9-0.9-2.3-2.2-2.9
      c-0.6-0.2-1.3-0.6-1.4-0.6c-1.9-0.8-5-0.4-5.5-0.2c-0.3,0.1-0.8,0.3-2.3,3.2c-0.2,0.5-0.1,1,0.4,1.3c0.1,0.1,0.3,0.1,0.4,0.1
      c0.3,0,0.7-0.2,0.8-0.5c0.5-0.9,1.1-2,1.4-2.3c0.3-0.1,1.1-0.1,1.9-0.1c-0.8,1.1-1.6,2.9-1.8,4c-0.4,1.2-1,2.5-1.3,2.9
      c-1.2-0.1-3.5-0.3-3.6-0.3c-0.6-0.1-1.1,0.3-1.2,0.9c-0.1,0.6,0.4,1.1,1,1.2c0.1,0,3.6,0.3,4.1,0.4s1.4-0.2,2.4-2.9
      c0.7,0.5,2.2,1.5,2.6,1.9c-0.1,0.7-0.7,2.7-1.3,4.4c-0.2,0.6,0.1,1.2,0.7,1.4c0.1,0,0.2,0.1,0.3,0.1c0.5,0,0.9-0.3,1-0.7
      c0.5-1.6,1.5-4.5,1.4-5.3c0-0.8-0.8-1.5-2.4-2.7c0.5-1.2,1.3-2.9,2-3.8c0.3,0.4,0.4,0.9,0.6,1.3c0.2,0.5,0.5,1.5,1.3,1.5
      c0.1,0,0.3,0,0.4-0.1c0.5-0.2,2.7-1.1,2.9-1.3C24.8,14.7,25,14.1,24.8,13.7z"/>
    <ellipse fill="currentColor" cx="19.4" cy="8.2" rx="2.2" ry="2.2"/>
  </symbol>

  <symbol id="icon-swimming" viewBox="0 0 32 32">
    <ellipse fill="currentColor" cx="20.5" cy="12.5" rx="2.2" ry="2.2"/>
    <path fill="currentColor" d="M4.9,18.4l0.8-0.8c0.6-0.6,1.6-0.6,2.2,0L8,17.7c0.6,0.6,1.5,0.6,2.1,0l0.1-0.1c0.6-0.6,1.6-0.6,2.2,0
      l0.1,0.1c0.6,0.6,1.5,0.6,2.1,0l0.1-0.1c0.6-0.6,1.6-0.6,2.2,0l0.1,0.1c0.6,0.6,1.5,0.6,2.1,0l0.1-0.1c0.6-0.6,1.6-0.6,2.2,0
      l0.1,0.1c0.6,0.6,1.5,0.6,2.1,0l0.1-0.1c0.6-0.6,1.6-0.6,2.2,0l0.8,0.8c0.1,0.1,0.2,0.2,0.4,0.2s0.3-0.1,0.4-0.2
      c0.2-0.2,0.2-0.5,0-0.7L27,16.8c-1-1-2.6-1-3.6,0L23.2,17c-0.2,0.2-0.5,0.2-0.7,0l-0.1-0.1c-0.7-0.7-1.6-0.9-2.5-0.7
      c-0.5-0.4-2.6-3-2.6-3c-1.1-1.2-1.5-2.2-1.5-2.6c0.2-0.4,1.3-1,2.4-1.4c0.5-0.2,0.7-0.7,0.6-1.2S18,7.4,17.5,7.5
      c-0.7,0.3-3,1.1-3.5,2.5c-0.4,1,0.4,2.5,1.3,3.6c-0.5,0.6-1.6,1.8-2.8,2.8c-1-0.5-2.2-0.4-3,0.5L9.4,17c-0.2,0.2-0.5,0.2-0.7,0
      l-0.1-0.1c-1-1-2.6-1-3.6,0l-0.8,0.8c-0.2,0.2-0.2,0.5,0,0.7C4.3,18.6,4.7,18.6,4.9,18.4z"/>
    <path fill="currentColor" d="M27,19.8c-1-1-2.6-1-3.6,0L23.2,20c-0.2,0.2-0.5,0.2-0.7,0l-0.1-0.1c-1-1-2.6-1-3.6,0L18.7,20
      c-0.2,0.2-0.5,0.2-0.7,0l-0.1-0.1c-1-1-2.6-1-3.6,0L14.1,20c-0.2,0.2-0.5,0.2-0.7,0l-0.2-0.1c-1-1-2.6-1-3.6,0L9.4,20
      c-0.2,0.2-0.5,0.2-0.7,0l-0.1-0.1c-1-1-2.6-1-3.6,0l-0.8,0.8c-0.2,0.2-0.2,0.5,0,0.7c0.2,0.2,0.5,0.2,0.7,0l0.8-0.8
      c0.6-0.6,1.6-0.6,2.2,0L8,20.7c0.6,0.6,1.5,0.6,2.1,0l0.1-0.1c0.6-0.6,1.6-0.6,2.2,0l0.1,0.1c0.6,0.6,1.5,0.6,2.1,0l0.1-0.1
      c0.6-0.6,1.6-0.6,2.2,0l0.1,0.1c0.6,0.6,1.5,0.6,2.1,0l0.1-0.1c0.6-0.6,1.6-0.6,2.2,0l0.1,0.1c0.6,0.6,1.5,0.6,2.1,0l0.1-0.1
      c0.6-0.6,1.6-0.6,2.2,0l0.8,0.8c0.1,0.1,0.2,0.2,0.4,0.2s0.3-0.1,0.4-0.2c0.2-0.2,0.2-0.5,0-0.7L27,19.8z"/>
    <path fill="currentColor" d="M27,22.8c-1-1-2.6-1-3.6,0l-0.1,0.1c-0.2,0.2-0.5,0.2-0.7,0l-0.1-0.1c-1-1-2.6-1-3.6,0l-0.1,0.1
      c-0.2,0.2-0.5,0.2-0.7,0l-0.1-0.1c-1-1-2.6-1-3.6,0l-0.1,0.1c-0.2,0.2-0.5,0.2-0.7,0l-0.2-0.1c-1-1-2.6-1-3.6,0l-0.1,0.1
      c-0.2,0.2-0.5,0.2-0.7,0l-0.1-0.1c-1-1-2.6-1-3.6,0l-0.8,0.8c-0.2,0.2-0.2,0.5,0,0.7c0.2,0.2,0.5,0.2,0.7,0l0.8-0.8
      c0.6-0.6,1.6-0.6,2.2,0L8,23.7c0.6,0.6,1.5,0.6,2.1,0l0.1-0.1c0.6-0.6,1.6-0.6,2.2,0l0.1,0.1c0.6,0.6,1.5,0.6,2.1,0l0.1-0.1
      c0.6-0.6,1.6-0.6,2.2,0l0.1,0.1c0.6,0.6,1.5,0.6,2.1,0l0.1-0.1c0.6-0.6,1.6-0.6,2.2,0l0.1,0.1c0.6,0.6,1.5,0.6,2.1,0l0.1-0.1
      c0.6-0.6,1.6-0.6,2.2,0l0.8,0.8c0.1,0.1,0.2,0.2,0.4,0.2s0.3-0.1,0.4-0.2c0.2-0.2,0.2-0.5,0-0.7L27,22.8z"/>
  </symbol>

  <symbol id="icon-cycling" viewBox="0 0 32 32">
    <path fill="currentColor" d="M8.7,16.3C6.1,16.4,4,18.5,4,21.2C4,23.8,6.1,26,8.8,26s4.8-2.1,4.9-4.8c0,0,0,0,0-0.1
      c0-2.7-2.1-4.8-4.8-4.8C8.8,16.3,8.8,16.3,8.7,16.3z M8.7,17.2c2.2-0.1,4.1,1.7,4.1,3.9c0,0,0,0.1,0,0.1c0,2.2-1.8,4-4,4
      c-2.2,0-4-1.8-4-4c0,0,0,0,0-0.1C4.8,19,6.5,17.2,8.7,17.2z"/>
    <path fill="currentColor" d="M16.9,8.9c-0.3,0-0.5,0.1-0.8,0.2l-5.3,3.1c-0.7,0.4-0.9,1.3-0.5,2c0.1,0.2,0.3,0.4,0.6,0.5l4.1,2.2v4.1
      c0,0.5,0.4,0.9,0.9,0.9c0.5,0,0.8-0.4,0.9-0.9v-4.5c0-0.4-0.2-0.8-0.6-1L14,14.5c-0.1-0.1-0.2-0.3-0.1-0.4c0,0,0.1-0.1,0.1-0.1
      l3-1.7c0.1-0.1,0.3,0,0.4,0.1c0,0,0,0,0,0l1,2.1c0.1,0.2,0.3,0.3,0.5,0.3h0.8l1,2.1c-2.3,1.3-3.1,4.3-1.8,6.6s4.3,3.1,6.6,1.8
      c2.3-1.3,3.1-4.3,1.8-6.6c-1.2-2-3.6-2.9-5.8-2.2l-0.8-1.8h1.8c0.5,0,0.9-0.4,0.9-0.9c0-0.5-0.4-0.9-0.9-0.9h-2.6
      c-0.1,0-0.2-0.1-0.3-0.2l-1.5-3.1C17.9,9.3,17.4,8.9,16.9,8.9L16.9,8.9z M23.4,17.2c2.2,0.1,3.9,2,3.8,4.2c-0.1,2.2-2,3.9-4.2,3.8
      c-2.2-0.1-3.9-2-3.8-4.2c0.1-1.3,0.8-2.6,2-3.3l1.7,3.6c0.1,0.2,0.4,0.3,0.6,0.2c0.2-0.1,0.3-0.3,0.2-0.5l-1.7-3.6
      C22.3,17.2,22.9,17.2,23.4,17.2L23.4,17.2z"/>
    <path fill="currentColor" d="M23.1,8.2c0-1.2-1-2.2-2.2-2.2c-1.2,0-2.2,1-2.2,2.2c0,0,0,0,0,0c0,1.2,1,2.2,2.2,2.2S23.1,9.4,23.1,8.2
      C23.1,8.2,23.1,8.2,23.1,8.2z"/>
  </symbol>

  <symbol id="icon-star" viewBox="0 0 32 32">
    <path fill="currentColor" d="M23.1,27.7c-0.1,0-0.2,0-0.2-0.1L16,23.9l-6.9,3.7c-0.2,0.1-0.4,0.1-0.5,0s-0.2-0.3-0.2-0.5l1.3-7.8
		l-5.6-5.6C4,13.6,4,13.4,4,13.2c0.1-0.2,0.2-0.3,0.4-0.3l7.7-1.1l3.4-7.1c0.2-0.3,0.7-0.3,0.9,0l3.4,7.1l7.7,1.1
		c0.2,0,0.3,0.2,0.4,0.3c0.1,0.2,0,0.4-0.1,0.5l-5.6,5.6l1.3,7.8c0,0.2,0,0.4-0.2,0.5C23.3,27.7,23.2,27.7,23.1,27.7z M16,22.9
		c0.1,0,0.2,0,0.2,0.1l6.2,3.3l-1.2-7.1c0-0.2,0-0.3,0.1-0.4l5-5l-7-1c-0.2,0-0.3-0.1-0.4-0.3L16,6l-3.1,6.4
		c-0.1,0.1-0.2,0.3-0.4,0.3l-7,1l5,5c0.1,0.1,0.2,0.3,0.1,0.4l-1.2,7.1l6.2-3.3C15.8,22.9,15.9,22.9,16,22.9z"/>
  </symbol>

  <symbol id="icon-pin" viewBox="0 0 32 32">
    <path fill="currentColor" d="M16,17.1c-2.6,0-4.7-2.1-4.7-4.6c0-2.5,2.1-4.6,4.7-4.6s4.7,2.1,4.7,4.6C20.7,15.1,18.6,17.1,16,17.1z
      M16,8.9c-2,0-3.7,1.6-3.7,3.6c0,2,1.7,3.6,3.7,3.6s3.7-1.6,3.7-3.6C19.7,10.5,18,8.9,16,8.9z"/>
		<path fill="currentColor" d="M16,28c-0.1,0-0.2,0-0.3-0.1c-0.3-0.3-8.3-7.9-8.3-15.3C7.3,7.8,11.2,4,16,4s8.7,3.8,8.7,8.5
			c0,7.4-8,15-8.3,15.3C16.2,28,16.1,28,16,28z M16,5c-4.2,0-7.7,3.4-7.7,7.5c0,6.1,6.2,12.7,7.7,14.3c1.5-1.6,7.7-8.2,7.7-14.3
			C23.7,8.4,20.2,5,16,5z"/>
  </symbol>

  <symbol id="icon-coin" viewBox="0 0 32 32">
    <path fill="currentColor" d="M16,4.5C9.7,4.5,4.7,9.7,4.7,16S9.7,27.5,16,27.5S27.3,22.3,27.3,16S22.3,4.5,16,4.5z M16,26.5c-5.7,0-10.3-4.7-10.3-10.5
      c0-5.8,4.6-10.5,10.3-10.5S26.3,10.2,26.3,16C26.3,21.8,21.7,26.5,16,26.5z"/>
    <path fill="currentColor" d="M18.8,16.7c-0.3-0.3-0.6-0.5-1-0.7c-0.4-0.2-0.9-0.4-1.6-0.6c-0.6-0.2-1.1-0.4-1.5-0.6c-0.3-0.2-0.5-0.4-0.7-0.6
      c-0.1-0.2-0.2-0.5-0.2-1c0-0.6,0.2-1,0.6-1.4c0.4-0.4,1-0.5,1.7-0.5c0.7,0,1.3,0.2,1.7,0.6c0.4,0.4,0.6,1,0.6,1.8
      c0,0.2,0.2,0.4,0.3,0.4h0.4c0.2,0,0.3-0.2,0.3-0.4c0-1-0.3-1.9-0.8-2.5c-0.5-0.5-1.2-0.9-2-1v-1c0-0.2-0.2-0.4-0.3-0.4h-0.4
      c-0.2,0-0.3,0.2-0.3,0.4v1c-0.8,0.1-1.4,0.4-1.9,0.8c-0.6,0.5-0.9,1.3-0.9,2.2c0,0.5,0.1,1,0.3,1.4c0.2,0.4,0.5,0.7,0.9,1
      c0.4,0.3,1,0.5,1.8,0.8c0.8,0.3,1.3,0.5,1.7,0.7c0.3,0.2,0.6,0.4,0.7,0.7c0.1,0.2,0.2,0.5,0.2,0.9c0,0.5-0.2,1-0.6,1.4
      c-0.4,0.4-1,0.6-1.7,0.6c-0.8,0-1.5-0.2-2-0.6c-0.5-0.4-0.7-1-0.7-1.8c0-0.2-0.2-0.3-0.3-0.3h-0.4c-0.2,0-0.3,0.2-0.3,0.3
      c0,1.1,0.3,1.9,1,2.5c0.6,0.5,1.3,0.9,2.3,1v1c0,0.2,0.2,0.3,0.3,0.3h0.4c0.2,0,0.3-0.2,0.3-0.3v-1.1c0.8-0.1,1.4-0.4,1.9-0.9
      c0.6-0.5,0.9-1.3,0.9-2.1c0-0.4-0.1-0.8-0.2-1.1C19.2,17.3,19,17,18.8,16.7z"/>
  </symbol>

  <symbol id="icon-sports" viewBox="0 0 32 32">
    <path fill="currentColor" d="M21.3,14.8c-0.1-0.2-0.3-0.3-0.5-0.3h-2.5l1.8-5.8c0.1-0.2,0-0.5-0.2-0.6C19.8,8,19.6,8,19.4,8.1l-8.6,8.5
    c-0.1,0.1-0.2,0.4-0.1,0.5c0.1,0.2,0.3,0.3,0.5,0.3h2.4l-2.1,5.8c-0.1,0.2,0,0.5,0.2,0.6C11.8,24,11.9,24,12,24c0.1,0,0.3,0,0.3-0.1
    l8.9-8.5C21.3,15.2,21.4,15,21.3,14.8z"/>
  </symbol>

</svg>
